# xmcd
#
# Track frame offsets:
#	150
#	9471
#	22573
#	32782
#	42892
#	53345
#	64456
#	78599
#	89293
#	102543
#	114478
#	127006
#	136957
#	149855
#	160861
#	172256
#	184065
#	194601
#	205808
#	215867
#	229971
#	243053
#	254519
#	264561
#	275135
#	286471
#	298296
#	312944
#	325775
#	340376
#
# Disc length: 4716 seconds
# Revision: 0
# Processed by: cddbd v1.5.2PL0 Copyright (c) Steve Scherf et al.
# Submitted via: dBpowerAMP V12.0
#
DISCID=da126a1e
DTITLE=Various Artist - The Odyssey - CD2 - The Twisted Wheel to the Golden Torch
DYEAR=2002
DGENRE=R&B
TTITLE0=Archie Bell and The Drells - Here I Go Again
TTITLE1=Sandi Sheldon - You're Gonna Make Me Love You
TTITLE2=The Olympics - The Same Old Thing
TTITLE3=Rose Batiste - Hit and Run
TTITLE4=The Soul Twins - Quick Change Artist
TTITLE5=Chubby CHecker - You Just Don't Know (What You Do To Me)
TTITLE6=Mitch Ryder and The Detroit Wheels - You Get Your Kicks
TTITLE7=The Just Brothers - Sliced Tomatoes
TTITLE8=NF Porter - Keep On Keeping On
TTITLE9=The Luther Infram Orchestra - Exus Trek
TTITLE10=Saxie Russel - Psychedelic Soul Pt 1
TTITLE11=The Vibrations - Cause You're Mine
TTITLE12=Herb Ward - Honest To Goodness
TTITLE13=Shawn Robinson - My Dear Heart
TTITLE14=The San Remo Golden Strings - Festival Time
TTITLE15=The Four Larks - Groovin' At The Go-Go
TTITLE16=Roy Hamilton - Cracking Up Over You
TTITLE17=Robert Knight - Love On A Mountain Top
TTITLE18=The Furys - I'm Satisfied With You
TTITLE19=Bobby Garrett - I Can't Get Away
TTITLE20=Patti Young - Head and Shoulders (Above The Rest)
TTITLE21=Darrell Banks - Somebody Somewhere Needs You
TTITLE22=Major Lance - You Don't Want Me No More
TTITLE23=The Tymes - What Would I Do
TTITLE24=The Cooperettes - Shing-A-Ling
TTITLE25=Levi Jackson - This Beautiful Day
TTITLE26=PP Arnold - Everything's Gonna Be Alright
TTITLE27=Fred Hughes - Baby Boy
TTITLE28=Johnny Jones and The King Casuals - Purple Haze
TTITLE29=Earl Wright and His Orchestra - Thumb A Ride
EXTD=
EXTT0=
EXTT1=
EXTT2=
EXTT3=
EXTT4=
EXTT5=
EXTT6=
EXTT7=
EXTT8=
EXTT9=
EXTT10=
EXTT11=
EXTT12=
EXTT13=
EXTT14=
EXTT15=
EXTT16=
EXTT17=
EXTT18=
EXTT19=
EXTT20=
EXTT21=
EXTT22=
EXTT23=
EXTT24=
EXTT25=
EXTT26=
EXTT27=
EXTT28=
EXTT29=
PLAYORDER=
